<svg width="6" height="9" viewBox="0 0 6 9" fill="none" xmlns="http://www.w3.org/2000/svg">
<path d="M6 4.49915L2.42822 8.99035L1.94119 8.99035L5.51317 4.49915L1.93347 4.87116e-05L2.42233 4.86946e-05L6 4.49915Z" fill="#3C3C3C"/>
<path d="M5.51114 4.49915L1.93936 8.99035L1.45233 8.99035L5.02431 4.49915L1.44461 4.87398e-05L1.93347 4.87116e-05L5.51114 4.49915Z" fill="#3C3C3C"/>
<path d="M5.0345 4.4991L1.46272 8.9903L0.97569 8.9903L4.54767 4.4991L0.967974 7.11701e-08L1.45683 5.41767e-08L5.0345 4.4991Z" fill="#3C3C3C"/>
<path d="M4.55336 4.5088L0.981576 9L0.494546 9L4.06653 4.5088L0.48683 0.00969804L0.97569 0.00969802L4.55336 4.5088Z" fill="#3C3C3C"/>
<path d="M4.06653 4.5088L0.494546 9L0.00771581 9L3.5797 4.5088L1.15647e-10 0.00969805L0.48886 0.00969803L4.06653 4.5088Z" fill="#3C3C3C"/>
</svg>
