<svg width="28" height="66" viewBox="0 0 28 66" fill="none" xmlns="http://www.w3.org/2000/svg">
<path d="M-1.4388e-06 32.9277L16.408 0.0698998L18.6453 0.0698997L2.2364 32.9277L18.6808 65.8434L16.4351 65.8434L-1.4388e-06 32.9277Z" fill="#999999"/>
<path d="M2.24572 32.9277L18.6538 0.0698997L20.8911 0.0698996L4.48212 32.9277L20.9265 65.8434L18.6808 65.8434L2.24572 32.9277Z" fill="#999999"/>
<path d="M4.43531 32.9281L20.8434 0.0702506L23.0807 0.0702505L6.67171 32.9281L23.1161 65.8437L20.8704 65.8437L4.43531 32.9281Z" fill="#999999"/>
<path d="M6.64559 32.8572L23.0536 -0.000695283L25.2909 -0.00069538L8.88199 32.8572L25.3264 65.7728L23.0807 65.7728L6.64559 32.8572Z" fill="#999999"/>
</svg>
