<svg width="37" height="50" viewBox="0 0 37 50" fill="none" xmlns="http://www.w3.org/2000/svg">
<rect x="1" y="1" width="7.74735" height="10.9473" rx="1" fill="#565C60" stroke="#565C60" stroke-width="1.5" stroke-linecap="round" stroke-linejoin="round"/>
<rect x="28.2832" y="1" width="7.74735" height="10.9473" rx="1" fill="#565C60" stroke="#565C60" stroke-width="1.5" stroke-linecap="round" stroke-linejoin="round"/>
<rect x="29.0234" y="37.79" width="7.0063" height="11.2101" rx="1" fill="#565C60" stroke="#565C60" stroke-width="1.5" stroke-linecap="round" stroke-linejoin="round"/>
<rect x="1" y="37.79" width="7.0063" height="11.2101" rx="1" fill="#565C60" stroke="#565C60" stroke-width="1.5" stroke-linecap="round" stroke-linejoin="round"/>
<rect x="14.0996" y="37.4004" width="9" height="8" fill="#565C60" stroke="#565C60" stroke-width="1.5" stroke-linecap="round" stroke-linejoin="round"/>
<rect x="17.75" y="4.7998" width="1.5" height="4" fill="#565C60" stroke="#565C60" stroke-width="1.5" stroke-linecap="round" stroke-linejoin="round"/>
<path d="M8.74609 6.38916C10.3575 6.38916 15 6.38916 15 6.38916M15 6.38916V2.8418C15 2.28951 15.4477 1.8418 16 1.8418H21C21.5523 1.8418 22 2.28951 22 2.8418V6.38916M15 6.38916V10.5C15 11.0523 15.4477 11.5 16 11.5H21C21.5523 11.5 22 11.0523 22 10.5V6.38916M22 6.38916H28.1145M11.104 43.3575V47.0733C11.104 47.6256 11.5517 48.0733 12.104 48.0733H25C25.5523 48.0733 26 47.6256 26 47.0733V43.3575M11.104 43.3575V35.5C11.104 34.9477 11.5517 34.5 12.104 34.5H25C25.5523 34.5 26 34.9477 26 35.5V43.3575M11.104 43.3575H8.74609M26 43.3575H28.2829" stroke="#565C60" stroke-width="1.5" stroke-linecap="round" stroke-linejoin="round"/>
<path d="M17.0069 12.5V13.3972V22.3948C17.0069 22.7057 16.8624 22.9988 16.6158 23.1881L16.3911 23.3606C16.1445 23.5499 16 23.843 16 24.1538V33.5C16 34.0523 16.4477 34.5 17 34.5H20.1C20.6523 34.5 21.1 34.0523 21.1 33.5V24.1539C21.1 23.843 20.9554 23.5499 20.7088 23.3606L20.484 23.1881C20.2374 22.9988 20.0929 22.7056 20.0929 22.3948V13.3972V12.5C20.0929 11.9477 19.6452 11.5 19.0929 11.5H18.0069C17.4546 11.5 17.0069 11.9477 17.0069 12.5Z" fill="#565C60" stroke="#565C60" stroke-width="1.5" stroke-linecap="round" stroke-linejoin="round"/>
</svg>
