<svg width="102" height="34" viewBox="0 0 102 34" fill="none" xmlns="http://www.w3.org/2000/svg">
<path d="M43.5096 7.41409L93.6896 7.41409C93.6896 7.41409 101.001 9.37326 101 19.8896C101.001 30.101 93.6896 33 93.6896 33L6.80272 33C5.44314 31.3852 1 29.5825 1 19.8896C1.30461 11.0498 6.80272 7.41409 6.80272 7.41409L31.3534 7.41409V5.28035C31.3534 5.28035 31.2757 5.27271 31.1502 5.25372C30.7715 5.19645 29.9571 5.03596 29.5257 4.6707C29.0058 4.2304 28.6631 3.78929 28.6119 3.17436C28.6032 3.06891 28.603 2.95834 28.6119 2.84179C28.6651 2.14972 28.9562 1.71391 29.5257 1.31768C30.1198 0.904347 31.3534 1.01286 31.3534 1.01286H36.4841H38.5584H40.6327H43.2328C43.2328 1.01286 44.4663 0.904347 45.0604 1.31768C45.6299 1.71391 45.8995 2.15172 45.9742 2.84179C46.066 3.68901 45.7349 4.30284 45.0604 4.82312C44.4778 5.2726 43.2328 5.28035 43.2328 5.28035V7.41409" stroke="#989DA0" stroke-width="1.5" stroke-linecap="round" stroke-linejoin="round"/>
</svg>
