<svg width="10" height="8" viewBox="0 0 10 8" fill="none" xmlns="http://www.w3.org/2000/svg">
<path d="M5.26858 7.61816L0.693691 3.08312L0.693691 2.46475L5.26858 7.00004L9.85151 2.45495L9.85151 3.07565L5.26858 7.61816Z" fill="#009EE3"/>
<path d="M5.26858 6.99746L0.693691 2.46242L0.693691 1.84405L5.26858 6.37934L9.85151 1.83425L9.85151 2.45495L5.26858 6.99746Z" fill="#009EE3"/>
<path d="M5.26863 6.39228L0.693739 1.85724L0.69374 1.23886L5.26863 5.77416L9.85156 1.22907L9.85156 1.84977L5.26863 6.39228Z" fill="#009EE3"/>
<path d="M5.25875 5.78138L0.683861 1.24634L0.683861 0.627961L5.25875 5.16326L9.84168 0.618165L9.84168 1.23886L5.25875 5.78138Z" fill="#009EE3"/>
<path d="M5.25875 5.16326L0.683861 0.627961L0.683861 0.00983922L5.25875 4.54514L9.84168 4.33913e-05L9.84168 0.620743L5.25875 5.16326Z" fill="#009EE3"/>
</svg>
