<svg width="10" height="8" viewBox="0 0 10 8" fill="none" xmlns="http://www.w3.org/2000/svg">
<path d="M4.58607 8L0.0103201 3.46496L0.0103202 2.84659L4.58607 7.38188L9.16987 2.83679L9.16987 3.45749L4.58607 8Z" fill="white"/>
<path d="M4.58607 7.3793L0.0103202 2.84427L0.0103202 2.22589L4.58607 6.76118L9.16987 2.21609L9.16987 2.83679L4.58607 7.3793Z" fill="white"/>
<path d="M4.58612 6.77412L0.0103689 2.23908L0.0103689 1.62071L4.58612 6.156L9.16992 1.61091L9.16992 2.23161L4.58612 6.77412Z" fill="white"/>
<path d="M4.57624 6.16322L0.000489802 1.62818L0.000489857 1.00981L4.57624 5.5451L9.16004 1.00001L9.16004 1.62071L4.57624 6.16322Z" fill="white"/>
<path d="M4.57624 5.5451L0.000489857 1.00981L0.000489913 0.391686L4.57624 4.92698L9.16004 0.38189L9.16004 1.00259L4.57624 5.5451Z" fill="white"/>
</svg>
