<svg width="27" height="23" viewBox="0 0 27 23" fill="none" xmlns="http://www.w3.org/2000/svg">
<path d="M18.5625 1.63636H8.4375C7.98995 1.63636 7.56073 1.80877 7.24426 2.11564C6.92779 2.42252 6.75 2.83874 6.75 3.27273V6.54545H5.0625V3.27273C5.0625 2.40475 5.41808 1.57232 6.05101 0.95856C6.68395 0.344804 7.54239 0 8.4375 0H18.5625C19.4576 0 20.316 0.344804 20.949 0.95856C21.5819 1.57232 21.9375 2.40475 21.9375 3.27273V6.54545H20.25V3.27273C20.25 2.83874 20.0722 2.42252 19.7557 2.11564C19.4393 1.80877 19.0101 1.63636 18.5625 1.63636ZM23.625 8.18182H3.375C2.92745 8.18182 2.49822 8.35422 2.18176 8.6611C1.86529 8.96798 1.6875 9.38419 1.6875 9.81818V14.7273C1.6875 15.1613 1.86529 15.5775 2.18176 15.8844C2.49822 16.1912 2.92745 16.3636 3.375 16.3636H5.0625V18H3.375C2.47989 18 1.62145 17.6552 0.988515 17.0414C0.355579 16.4277 0 15.5953 0 14.7273V9.81818C0 8.9502 0.355579 8.11777 0.988515 7.50401C1.62145 6.89026 2.47989 6.54545 3.375 6.54545H23.625C24.5201 6.54545 25.3785 6.89026 26.0115 7.50401C26.6444 8.11777 27 8.9502 27 9.81818V14.7273C27 15.5953 26.6444 16.4277 26.0115 17.0414C25.3785 17.6552 24.5201 18 23.625 18H21.9375V16.3636H23.625C24.0726 16.3636 24.5018 16.1912 24.8182 15.8844C25.1347 15.5775 25.3125 15.1613 25.3125 14.7273V9.81818C25.3125 9.38419 25.1347 8.96798 24.8182 8.6611C24.5018 8.35422 24.0726 8.18182 23.625 8.18182Z" fill="#373939"/>
<path fill-rule="evenodd" clip-rule="evenodd" d="M18.6 13.5714H8.4C7.94913 13.5714 7.51673 13.737 7.19792 14.0317C6.87911 14.3264 6.7 14.7261 6.7 15.1429V19.8571C6.7 20.2739 6.87911 20.6736 7.19792 20.9683C7.51673 21.263 7.94913 21.4286 8.4 21.4286H18.6C19.0509 21.4286 19.4833 21.263 19.8021 20.9683C20.1209 20.6736 20.3 20.2739 20.3 19.8571V15.1429C20.3 14.7261 20.1209 14.3264 19.8021 14.0317C19.4833 13.737 19.0509 13.5714 18.6 13.5714ZM8.4 12C7.49826 12 6.63346 12.3311 5.99584 12.9205C5.35821 13.5099 5 14.3093 5 15.1429V19.8571C5 20.6907 5.35821 21.4901 5.99584 22.0795C6.63346 22.6689 7.49826 23 8.4 23H18.6C19.5017 23 20.3665 22.6689 21.0042 22.0795C21.6418 21.4901 22 20.6907 22 19.8571V15.1429C22 14.3093 21.6418 13.5099 21.0042 12.9205C20.3665 12.3311 19.5017 12 18.6 12H8.4Z" fill="#373939"/>
<path d="M5 11C5 11.2652 4.89464 11.5196 4.70711 11.7071C4.51957 11.8946 4.26522 12 4 12C3.73478 12 3.48043 11.8946 3.29289 11.7071C3.10536 11.5196 3 11.2652 3 11C3 10.7348 3.10536 10.4804 3.29289 10.2929C3.48043 10.1054 3.73478 10 4 10C4.26522 10 4.51957 10.1054 4.70711 10.2929C4.89464 10.4804 5 10.7348 5 11Z" fill="#373939"/>
</svg>
