<svg width="23" height="23" viewBox="0 0 23 23" fill="none" xmlns="http://www.w3.org/2000/svg">
<path d="M23 12.6V11H18V19H19.6667V15.8H22.1667V14.2H19.6667V12.6H23Z" fill="#373939"/>
<path d="M14.4286 19H11V11H14.4286C15.1104 11.0006 15.764 11.2537 16.2461 11.7036C16.7282 12.1536 16.9994 12.7637 17.0001 13.4V16.6C16.9994 17.2363 16.7282 17.8464 16.2461 18.2964C15.764 18.7463 15.1104 18.9994 14.4286 19ZM12.7143 17.4H14.4286C14.6559 17.3998 14.8737 17.3154 15.0344 17.1655C15.1951 17.0155 15.2855 16.8121 15.2857 16.6V13.4C15.2855 13.1879 15.1951 12.9845 15.0344 12.8345C14.8737 12.6846 14.6559 12.6002 14.4286 12.6H12.7143V17.4Z" fill="#373939"/>
<path d="M7.28575 11H3V19H4.7143V16.6H7.28575C7.7402 16.5994 8.17585 16.4306 8.49719 16.1307C8.81854 15.8307 8.99937 15.4242 9.00005 15V12.6C8.9996 12.1758 8.81884 11.7691 8.49744 11.4691C8.17605 11.1691 7.74027 11.0004 7.28575 11ZM4.7143 15V12.6H7.28575L7.28661 15H4.7143Z" fill="#373939"/>
<path d="M15.9999 9.8573V6.57163C16.0027 6.46367 15.9827 6.35637 15.9413 6.25711C15.8998 6.15785 15.838 6.06899 15.7599 5.99663L10.1599 0.246705C10.0895 0.166489 10.0029 0.102916 9.90627 0.0603719C9.80959 0.0178279 9.70507 -0.0026744 9.59992 0.000279315H1.59999C1.17603 0.0015794 0.769806 0.175081 0.470024 0.482891C0.170242 0.790702 0.00126617 1.20781 0 1.64312V21.3572C0 21.7929 0.16857 22.2107 0.468625 22.5188C0.768681 22.8269 1.17564 23 1.59999 23H14.3999V21.3572H1.59999V1.64312H7.99994V6.57163C8.0012 7.00694 8.17018 7.42404 8.46996 7.73185C8.76974 8.03966 9.17597 8.21317 9.59992 8.21447H14.3999V9.8573H15.9999ZM9.59992 6.57163V1.97168L14.0799 6.57163H9.59992Z" fill="#373939"/>
</svg>
