<svg width="24" height="24" viewBox="0 0 24 24" fill="none" xmlns="http://www.w3.org/2000/svg">
<path d="M4.42105 15.6C5.57053 15.6 6.6101 15.1704 7.39832 14.484L15.3057 18.7764C15.212 19.1105 15.1624 19.4543 15.1579 19.8C15.1579 22.116 17.1411 24 19.5789 24C22.0168 24 24 22.116 24 19.8C24 17.484 22.0168 15.6 19.5789 15.6C18.4295 15.6 17.3899 16.0296 16.6017 16.716L8.69432 12.4236C8.77389 12.1272 8.82442 11.8212 8.83074 11.502L16.6004 7.284C17.3899 7.9704 18.4295 8.4 19.5789 8.4C22.0168 8.4 24 6.516 24 4.2C24 1.884 22.0168 0 19.5789 0C17.1411 0 15.1579 1.884 15.1579 4.2C15.1579 4.5552 15.2185 4.8936 15.3057 5.2236L8.12589 9.1224C7.72641 8.53359 7.17808 8.04919 6.53093 7.7134C5.88379 7.3776 5.15844 7.2011 4.42105 7.2C1.98316 7.2 0 9.084 0 11.4C0 13.716 1.98316 15.6 4.42105 15.6ZM19.5789 18C20.6236 18 21.4737 18.8076 21.4737 19.8C21.4737 20.7924 20.6236 21.6 19.5789 21.6C18.5343 21.6 17.6842 20.7924 17.6842 19.8C17.6842 18.8076 18.5343 18 19.5789 18ZM19.5789 2.4C20.6236 2.4 21.4737 3.2076 21.4737 4.2C21.4737 5.1924 20.6236 6 19.5789 6C18.5343 6 17.6842 5.1924 17.6842 4.2C17.6842 3.2076 18.5343 2.4 19.5789 2.4ZM4.42105 9.6C5.46568 9.6 6.31579 10.4076 6.31579 11.4C6.31579 12.3924 5.46568 13.2 4.42105 13.2C3.37642 13.2 2.52632 12.3924 2.52632 11.4C2.52632 10.4076 3.37642 9.6 4.42105 9.6Z" fill="#373939"/>
</svg>
