<svg fill="none" xmlns="http://www.w3.org/2000/svg">
<path d="M21 0L0 10.5714V51.4286L21 62L42 51.4286V10.5714L21 0ZM6.52703 14.5714L20.7162 7.42857L35.1892 14.5714V21.7143L20.7162 15.1429V30.8571H6.52703V14.5714ZM35.1892 47.1429L21 54.2857L6.52703 47.1429V40L21 46.5714V30.8571H35.1892V47.1429Z" fill="#009EE3"/>
<path d="M73.8454 36.1622V26.8378L76.0103 24.973H89V20H63.6392L59 24.3514V38.6486L63.6392 43H89V38.027H76.0103L73.8454 36.1622Z" fill="#009EE3"/>
<path d="M278.443 38.027L276.351 36.1622V26.8378L278.443 24.973H291V20H266.485L262 24.3514V38.6486L266.485 43H291V38.027H278.443Z" fill="#009EE3"/>
<path d="M327 24.973V20H294V24.973H303.34V43H317.349V24.973H327Z" fill="#009EE3"/>
<path d="M153.711 30.5676L155.804 28.7027V23.4189L152.216 20H132.186H128V24.0405V38.9595V43H132.186H153.412L157 39.5811V33.9865L153.711 30.5676ZM140.557 24.3514H149.227L150.423 25.5946V27.7703L148.629 29.3243H140.258V24.3514H140.557ZM151.619 37.4054L150.423 38.6486H140.557V33.9865H149.825L151.619 35.5405V37.4054Z" fill="#009EE3"/>
<path d="M219.67 20H198.33H194V24.0405V43H207.608V36.1622H219.67L224 32.1216V24.0405L219.67 20ZM218.742 29.9459L216.887 31.8108H207.608V24.6622H216.887L218.742 26.2162V29.9459Z" fill="#009EE3"/>
<path d="M108.052 38.027V33.3649H119.113V29.6351H108.052V24.973H123V24.0405V20H94V43H123V40.5135V38.027H108.052Z" fill="#009EE3"/>
<path d="M183.448 38.027H176.198V34.9189V33.3649H187.073V29.6351H176.198V24.973H178.312H183.146H191V24.0405V20H162V43H191V40.5135V38.027H183.448Z" fill="#009EE3"/>
<path d="M242.536 38.027V33.3649H253.979V29.6351H242.536V24.973H258V20H228V43H258V40.5135V38.027H242.536Z" fill="#009EE3"/>
</svg>
