<svg width="158" height="30" viewBox="0 0 158 30" fill="none" xmlns="http://www.w3.org/2000/svg">
<path d="M10 0L0 5.11521V24.8848L10 30L20 24.8848V5.11521L10 0ZM3.10811 7.05069L9.86486 3.59447L16.7568 7.05069V10.5069L9.86486 7.32719V14.9309H3.10811V7.05069ZM16.7568 22.8111L10 26.2673L3.10811 22.8111V19.3548L10 22.5346V14.9309H16.7568V22.8111Z" fill="white"/>
<path d="M35.9278 17.7297V13.2703L36.9381 12.3784H43V10H31.1649L29 12.0811V18.9189L31.1649 21H43V18.6216H36.9381L35.9278 17.7297Z" fill="white"/>
<path d="M134.938 18.6216L133.928 17.7297V13.2703L134.938 12.3784H141V10H129.165L127 12.0811V18.9189L129.165 21H141V18.6216H134.938Z" fill="white"/>
<path d="M158 12.3784V10H142V12.3784H146.528V21H153.321V12.3784H158Z" fill="white"/>
<path d="M74.4124 15.0541L75.4227 14.1622V11.6351L73.6907 10H64.0206H62V11.9324V19.0676V21H64.0206H74.268L76 19.3649V16.6892L74.4124 15.0541ZM68.0619 12.0811H72.2474L72.8247 12.6757V13.7162L71.9588 14.4595H67.9175V12.0811H68.0619ZM73.4021 18.3243L72.8247 18.9189H68.0619V16.6892H72.5361L73.4021 17.4324V18.3243Z" fill="white"/>
<path d="M105.979 10H96.0206H94V11.9324V21H100.351V17.7297H105.979L108 15.7973V11.9324L105.979 10ZM105.546 14.7568L104.68 15.6486H100.351V12.2297H104.68L105.546 12.973V14.7568Z" fill="white"/>
<path d="M51.7835 18.6216V16.3919H57.1237V14.6081H51.7835V12.3784H59V11.9324V10H45V21H59V19.8108V18.6216H51.7835Z" fill="white"/>
<path d="M88.3542 18.6216H84.8542V17.1351V16.3919H90.1042V14.6081H84.8542V12.3784H85.875H88.2083H92V11.9324V10H78V21H92V19.8108V18.6216H88.3542Z" fill="white"/>
<path d="M116.784 18.6216V16.3919H122.124V14.6081H116.784V12.3784H124V10H110V21H124V19.8108V18.6216H116.784Z" fill="white"/>
</svg>
