<svg width="19" height="13" viewBox="0 0 19 13" fill="none" xmlns="http://www.w3.org/2000/svg">
<path d="M18.3214 0H0.678571C0.498603 0 0.326006 0.0622564 0.198749 0.173073C0.0714921 0.28389 0 0.43419 0 0.590909V12.4091C0 12.5658 0.0714921 12.7161 0.198749 12.8269C0.326006 12.9377 0.498603 13 0.678571 13H18.3214C18.5014 13 18.674 12.9377 18.8013 12.8269C18.9285 12.7161 19 12.5658 19 12.4091V0.590909C19 0.43419 18.9285 0.28389 18.8013 0.173073C18.674 0.0622564 18.5014 0 18.3214 0ZM9.91647 7.55736C9.79738 7.63798 9.65084 7.68174 9.5 7.68174C9.34916 7.68174 9.20262 7.63798 9.08353 7.55736L2.44074 3.05832L3.27368 2.12543L9.5 6.3423L15.7263 2.12543L16.5593 3.05832L9.91647 7.55736Z" fill="#565C60"/>
</svg>
