<svg width="20" height="21" viewBox="0 0 20 21" fill="none" xmlns="http://www.w3.org/2000/svg">
<path fill-rule="evenodd" clip-rule="evenodd" d="M6.77785 13.4456C6.6373 13.3074 6.47826 13.1901 6.30983 13.1003C6.14139 13.0106 5.96686 12.9501 5.79621 12.9224C5.62556 12.8947 5.46214 12.9003 5.31529 12.9389C5.16845 12.9775 5.04106 13.0484 4.9404 13.1474L0.766942 17.2467C0.563508 17.4463 0.481123 17.7485 0.53791 18.0869C0.594697 18.4252 0.786006 18.7719 1.06975 19.0507C1.35349 19.3296 1.70643 19.5177 2.05091 19.5737C2.3954 19.6297 2.70322 19.5491 2.90665 19.3494L7.08012 15.2501C7.18093 15.1513 7.25304 15.0262 7.29235 14.8819C7.33165 14.7377 7.33737 14.5772 7.30918 14.4096C7.28099 14.2419 7.21943 14.0705 7.12804 13.9051C7.03665 13.7396 6.91851 13.5836 6.77785 13.4456Z" fill="#009EE3"/>
<path fill-rule="evenodd" clip-rule="evenodd" d="M11.5 15.6923C10.5555 15.6923 9.62023 15.5063 8.74762 15.1448C7.87501 14.7834 7.08214 14.2536 6.41427 13.5857C5.7464 12.9179 5.21662 12.125 4.85517 11.2524C4.49373 10.3798 4.30769 9.44451 4.30769 8.5C4.30769 7.55549 4.49373 6.62023 4.85517 5.74762C5.21662 4.87501 5.7464 4.08214 6.41427 3.41427C7.08214 2.7464 7.87501 2.21662 8.74762 1.85517C9.62024 1.49373 10.5555 1.30769 11.5 1.30769C13.4075 1.30769 15.2369 2.06545 16.5857 3.41427C17.9345 4.76309 18.6923 6.59248 18.6923 8.5C18.6923 10.4075 17.9345 12.2369 16.5857 13.5857C15.2369 14.9345 13.4075 15.6923 11.5 15.6923ZM3 8.5C3 10.7543 3.89553 12.9163 5.48959 14.5104C7.08365 16.1045 9.24566 17 11.5 17C13.7543 17 15.9163 16.1045 17.5104 14.5104C19.1045 12.9163 20 10.7543 20 8.5C20 6.24566 19.1045 4.08365 17.5104 2.48959C15.9163 0.895533 13.7543 -5.46013e-07 11.5 -7.43094e-07C9.24566 -9.40174e-07 7.08365 0.895532 5.48959 2.48959C3.89553 4.08365 3 6.24566 3 8.5Z" fill="#009EE3"/>
</svg>
