<svg width="143" height="27" viewBox="0 0 143 27" fill="none" xmlns="http://www.w3.org/2000/svg">
<path d="M9.14619 0L0 4.60369V22.3963L9.14619 27L18.2924 22.3963V4.60369L9.14619 0ZM2.84274 6.34562L9.0226 3.23502L15.3261 6.34562V9.45622L9.0226 6.59447V13.4378H2.84274V6.34562ZM15.3261 20.53L9.14619 23.6406L2.84274 20.53V17.4194L9.14619 20.2811V13.4378H15.3261V20.53Z" fill="#009EE3"/>
<path d="M32.1629 15.7493V11.6887L33.1058 10.8766H38.7633V8.71094H27.7178L25.6973 10.6059V16.8321L27.7178 18.7271H38.7633V16.5614H33.1058L32.1629 15.7493Z" fill="#009EE3"/>
<path d="M121.271 16.5614L120.36 15.7493V11.6887L121.271 10.8766H126.74V8.71094H116.063L114.109 10.6059V16.8321L116.063 18.7271H126.74V16.5614H121.271Z" fill="#009EE3"/>
<path d="M142.419 10.8766V8.71094H128.047V10.8766H132.115V18.7271H138.216V10.8766H142.419Z" fill="#009EE3"/>
<path d="M66.9481 13.3129L67.8596 12.5008V10.1998L66.2971 8.71094H57.573H55.75V10.4705V16.9675V18.7271H57.573H66.8179L68.3805 17.2382V14.8018L66.9481 13.3129ZM61.2189 10.6059H64.995L65.5158 11.1473V12.0948L64.7346 12.7715H61.0886V10.6059H61.2189ZM66.0367 16.2907L65.5158 16.8321H61.2189V14.8018H65.2554L66.0367 15.4786V16.2907V16.2907Z" fill="#009EE3"/>
<path d="M95.6743 8.71094H86.38H84.4941V10.4705V18.7271H90.421V15.7493H95.6743L97.5601 13.9897V10.4705L95.6743 8.71094ZM95.2702 13.0422L94.462 13.8544H90.421V10.7412H94.462L95.2702 11.418V13.0422Z" fill="#009EE3"/>
<path d="M47.0613 16.5614V14.5311H51.8791V12.9069H47.0613V10.8766H53.5719V10.4705V8.71094H40.9414V18.7271H53.5719V17.6442V16.5614H47.0613Z" fill="#009EE3"/>
<path d="M79.8979 16.5614H76.7403V15.2079V14.5311H81.4767V12.9069H76.7403V10.8766H77.6613H79.7664H83.1871V10.4705V8.71094H70.5566V18.7271H83.1871V17.6442V16.5614H79.8979Z" fill="#009EE3"/>
<path d="M105.634 16.5614V14.5311H110.618V12.9069H105.634V10.8766H112.369V8.71094H99.3027V18.7271H112.369V17.6442V16.5614H105.634Z" fill="#009EE3"/>
</svg>
