<svg width="51" height="30" viewBox="0 0 51 30" fill="none" xmlns="http://www.w3.org/2000/svg">
<path d="M37.5954 7.253V9.56795C37.5954 9.56795 29.0989 9.56725 24.4865 9.56795C19.8582 9.56866 11.2924 9.57579 11.2924 9.57579V7.26082L11.2921 5.23523H13.8028V7.26082L33.1811 7.25445V1H35.4491V7.2537L37.5954 7.253Z" fill="#565C60"/>
<path d="M25.4944 5.2274L23.2264 5.2274V3.50433L25.4944 3.50433V5.2274Z" fill="#565C60"/>
<path d="M16.4397 21.0129V12.4357L32.4504 12.4357V21.0129L16.4397 21.0129Z" fill="#565C60"/>
<path d="M50.1765 23.9438L5.57531 23.9438C5.57531 23.9438 4.41424 24.4972 4.00016 26C3.58607 27.5028 3.86128 28.5 3.86128 28.5L50.1765 28.5V23.9438Z" fill="#565C60"/>
<path d="M35.4491 20.9591L34.6991 20.9572C34.6986 21.1565 34.7774 21.3477 34.9181 21.4888C35.0588 21.6298 35.2499 21.7091 35.4491 21.7091V20.9591ZM36.1991 11.8635C36.1985 11.4493 35.8622 11.114 35.448 11.1146C35.0338 11.1153 34.6985 11.4516 34.6991 11.8658L36.1991 11.8635ZM37.5954 7.253H38.3454C38.3454 7.05404 38.2664 6.86324 38.1257 6.72258C37.985 6.58192 37.7941 6.50293 37.5952 6.503L37.5954 7.253ZM37.5954 9.56795L37.5954 10.318C37.7943 10.318 37.9851 10.239 38.1257 10.0983C38.2664 9.95765 38.3454 9.76687 38.3454 9.56795H37.5954ZM11.2924 9.57579H10.5424C10.5424 9.77481 10.6215 9.96567 10.7623 10.1063C10.9031 10.247 11.094 10.326 11.293 10.3258L11.2924 9.57579ZM11.2924 7.26082H12.0424V7.26073L11.2924 7.26082ZM13.4531 21.0129V21.7629C13.8663 21.7629 14.2016 21.4287 14.2031 21.0155L13.4531 21.0129ZM14.2349 11.9211C14.2364 11.5069 13.9018 11.1699 13.4876 11.1684C13.0734 11.167 12.7364 11.5016 12.735 11.9158L14.2349 11.9211ZM13.8028 7.26082H13.0528C13.0528 7.45978 13.1318 7.65058 13.2725 7.79124C13.4132 7.9319 13.6041 8.01089 13.803 8.01082L13.8028 7.26082ZM13.8028 5.23523H14.5528C14.5528 4.82102 14.217 4.48523 13.8028 4.48523V5.23523ZM11.2921 5.23523V4.48523C11.0932 4.48523 10.9024 4.56426 10.7618 4.70493C10.6211 4.8456 10.5421 5.03639 10.5421 5.23532L11.2921 5.23523ZM33.1811 7.26082H32.4311C32.4311 7.67504 32.7669 8.01082 33.1811 8.01082V7.26082ZM35.4491 7.26082V8.01082C35.8633 8.01082 36.1991 7.67504 36.1991 7.26082H35.4491ZM35.4491 1H36.1991C36.1991 0.585787 35.8633 0.25 35.4491 0.25V1ZM33.1811 1V0.25C32.7669 0.25 32.4311 0.585787 32.4311 1H33.1811ZM24.4865 9.56795L24.4866 10.318L24.4865 9.56795ZM23.2264 5.2274H22.4764C22.4764 5.64161 22.8122 5.9774 23.2264 5.9774V5.2274ZM25.4944 5.2274V5.9774C25.9087 5.9774 26.2444 5.64161 26.2444 5.2274H25.4944ZM25.4944 3.50433H26.2444C26.2444 3.09012 25.9087 2.75433 25.4944 2.75433V3.50433ZM23.2264 3.50433V2.75433C22.8122 2.75433 22.4764 3.09012 22.4764 3.50433H23.2264ZM3.86128 21.0129V20.2629C3.691 20.2629 3.5258 20.3209 3.39282 20.4272L3.86128 21.0129ZM16.4397 12.4357V11.6857C16.0255 11.6857 15.6897 12.0215 15.6897 12.4357H16.4397ZM16.4397 21.0129H15.6897C15.6897 21.4271 16.0255 21.7629 16.4397 21.7629V21.0129ZM32.4504 21.0129V21.7629C32.8646 21.7629 33.2004 21.4271 33.2004 21.0129H32.4504ZM32.4504 12.4357H33.2004C33.2004 12.0215 32.8646 11.6857 32.4504 11.6857V12.4357ZM5.57531 23.9438V23.1938C5.46365 23.1938 5.3534 23.2187 5.2526 23.2668L5.57531 23.9438ZM50.1765 23.9438H50.9265C50.9265 23.5296 50.5907 23.1938 50.1765 23.1938V23.9438ZM50.1765 28.5V29.25C50.5907 29.25 50.9265 28.9142 50.9265 28.5H50.1765ZM3.86128 28.5L3.13831 28.6995C3.22806 29.0247 3.52391 29.25 3.86128 29.25V28.5ZM4.00016 26L3.27711 25.8008L3.27711 25.8008L4.00016 26ZM1.5002 24.4438L2.2264 24.6313L1.5002 24.4438ZM36.1991 20.961C36.2034 19.2475 36.2034 16.973 36.2023 15.1273C36.2018 14.2043 36.201 13.3884 36.2003 12.8032C36.2 12.5107 36.1997 12.2757 36.1995 12.114C36.1993 12.0331 36.1993 11.9705 36.1992 11.9281C36.1992 11.9069 36.1991 11.8908 36.1991 11.8799C36.1991 11.8745 36.1991 11.8704 36.1991 11.8677C36.1991 11.8663 36.1991 11.8653 36.1991 11.8646C36.1991 11.8642 36.1991 11.864 36.1991 11.8638C36.1991 11.8637 36.1991 11.8636 36.1991 11.8636C36.1991 11.8635 36.1991 11.8635 35.4491 11.8646C34.6991 11.8658 34.6991 11.8658 34.6991 11.8658C34.6991 11.8659 34.6991 11.8659 34.6991 11.866C34.6991 11.8662 34.6991 11.8665 34.6991 11.8668C34.6991 11.8675 34.6991 11.8685 34.6991 11.8699C34.6991 11.8726 34.6991 11.8767 34.6991 11.8821C34.6991 11.8929 34.6992 11.9091 34.6992 11.9302C34.6993 11.9726 34.6993 12.0351 34.6995 12.116C34.6997 12.2777 34.7 12.5125 34.7003 12.805C34.701 13.3899 34.7018 14.2055 34.7023 15.1282C34.7034 16.9736 34.7034 19.2463 34.6991 20.9572L36.1991 20.961ZM36.8454 7.253V9.56795H38.3454V7.253H36.8454ZM12.0424 9.57579V7.26082H10.5424V9.57579H12.0424ZM14.2031 21.0155L14.2349 11.9211L12.735 11.9158L12.7031 21.0103L14.2031 21.0155ZM13.803 8.01082L33.1813 8.00445L33.1808 6.50445L13.8025 6.51082L13.803 8.01082ZM33.1813 8.00445L35.4493 8.0037L35.4489 6.5037L33.1808 6.50445L33.1813 8.00445ZM35.4493 8.0037L37.5957 8.003L37.5952 6.503L35.4489 6.5037L35.4493 8.0037ZM13.0528 5.23523V7.26082H14.5528V5.23523H13.0528ZM11.2921 5.98523H13.8028V4.48523H11.2921V5.98523ZM12.0424 7.26073L12.0421 5.23514L10.5421 5.23532L10.5424 7.26091L12.0424 7.26073ZM33.1811 8.01082H35.4491V6.51082H33.1811V8.01082ZM36.1991 7.26082V7.2537H34.6991V7.26082H36.1991ZM36.1991 7.2537V1H34.6991V7.2537H36.1991ZM35.4491 0.25H33.1811V1.75H35.4491V0.25ZM32.4311 1V7.25445H33.9311V1H32.4311ZM32.4311 7.25445V7.26082H33.9311V7.25445H32.4311ZM37.5954 9.56795C37.5955 8.81795 37.5955 8.81795 37.5954 8.81795C37.5953 8.81795 37.5952 8.81795 37.5951 8.81795C37.5948 8.81795 37.5945 8.81795 37.5939 8.81795C37.5929 8.81795 37.5914 8.81795 37.5893 8.81795C37.5852 8.81795 37.5791 8.81795 37.571 8.81795C37.5548 8.81795 37.5306 8.81795 37.4989 8.81794C37.4356 8.81794 37.3421 8.81793 37.2214 8.81792C36.98 8.8179 36.6301 8.81788 36.1958 8.81785C35.3272 8.8178 34.121 8.81773 32.7706 8.81769C30.07 8.8176 26.7927 8.8176 24.4863 8.81795L24.4866 10.318C26.7927 10.3176 30.0699 10.3176 32.7706 10.3177C34.1209 10.3177 35.3271 10.3178 36.1957 10.3179C36.63 10.3179 36.9799 10.3179 37.2213 10.3179C37.3419 10.3179 37.4355 10.3179 37.4988 10.3179C37.5305 10.3179 37.5546 10.3179 37.5709 10.3179C37.579 10.3179 37.5851 10.318 37.5892 10.318C37.5912 10.318 37.5928 10.318 37.5938 10.318C37.5943 10.318 37.5947 10.318 37.595 10.318C37.5951 10.318 37.5952 10.318 37.5953 10.318C37.5953 10.318 37.5954 10.318 37.5954 9.56795ZM24.4863 8.81795C22.172 8.81831 18.8733 8.82026 16.1533 8.82213C14.7933 8.82307 13.5779 8.82398 12.7025 8.82466C12.2648 8.825 11.9122 8.82528 11.6689 8.82548C11.5473 8.82558 11.453 8.82565 11.3891 8.82571C11.3572 8.82573 11.3328 8.82575 11.3165 8.82577C11.3083 8.82577 11.3021 8.82578 11.298 8.82578C11.2959 8.82578 11.2944 8.82578 11.2933 8.82578C11.2928 8.82579 11.2924 8.82579 11.2922 8.82579C11.292 8.82579 11.2919 8.82579 11.2919 8.82579C11.2918 8.82579 11.2918 8.82579 11.2924 9.57579C11.293 10.3258 11.293 10.3258 11.2931 10.3258C11.2932 10.3258 11.2933 10.3258 11.2934 10.3258C11.2937 10.3258 11.2941 10.3258 11.2946 10.3258C11.2956 10.3258 11.2972 10.3258 11.2992 10.3258C11.3034 10.3258 11.3095 10.3258 11.3177 10.3258C11.3341 10.3258 11.3584 10.3257 11.3903 10.3257C11.4542 10.3257 11.5485 10.3256 11.6701 10.3255C11.9134 10.3253 12.266 10.325 12.7037 10.3247C13.579 10.324 14.7944 10.3231 16.1543 10.3221C18.8743 10.3203 22.1727 10.3183 24.4866 10.318L24.4863 8.81795ZM23.2264 5.9774L25.4944 5.9774V4.4774L23.2264 4.4774V5.9774ZM26.2444 5.2274V3.50433L24.7444 3.50433V5.2274L26.2444 5.2274ZM25.4944 2.75433L23.2264 2.75433V4.25433L25.4944 4.25433V2.75433ZM22.4764 3.50433V5.2274H23.9764V3.50433H22.4764ZM13.4531 20.2629H3.86128V21.7629H13.4531V20.2629ZM35.4491 21.7091H51V20.2091L35.4491 20.2091V21.7091ZM15.6897 12.4357V21.0129H17.1897V12.4357H15.6897ZM16.4397 21.7629L32.4504 21.7629V20.2629H16.4397V21.7629ZM33.2004 21.0129V12.4357H31.7004V21.0129H33.2004ZM32.4504 11.6857L16.4397 11.6857V13.1857H32.4504V11.6857ZM5.57531 24.6938L50.1765 24.6938V23.1938L5.57531 23.1938V24.6938ZM49.4265 23.9438V28.5H50.9265V23.9438H49.4265ZM50.1765 27.75L3.86128 27.75V29.25L50.1765 29.25V27.75ZM3.86128 28.5C4.58425 28.3005 4.58433 28.3007 4.5844 28.301C4.58442 28.3011 4.58449 28.3014 4.58454 28.3015C4.58463 28.3019 4.58472 28.3022 4.5848 28.3025C4.58497 28.3031 4.58512 28.3036 4.58525 28.3041C4.58552 28.3051 4.58572 28.3059 4.58586 28.3064C4.58613 28.3075 4.58616 28.3076 4.58597 28.3068C4.58558 28.3053 4.58431 28.3001 4.58238 28.2914C4.57852 28.2741 4.57204 28.2428 4.56471 28.1984C4.55005 28.1097 4.53208 27.9693 4.52487 27.7843C4.51047 27.4149 4.53899 26.8678 4.72321 26.1993L3.27711 25.8008C3.04724 26.635 3.00632 27.3379 3.02601 27.8428C3.03584 28.095 3.06079 28.2978 3.08479 28.443C3.09679 28.5156 3.10857 28.574 3.11815 28.617C3.12294 28.6386 3.12717 28.6563 3.13062 28.6701C3.13234 28.677 3.13386 28.6829 3.13515 28.6878C3.1358 28.6902 3.13639 28.6925 3.13691 28.6944C3.13718 28.6954 3.13743 28.6963 3.13766 28.6972C3.13777 28.6976 3.13789 28.698 3.138 28.6984C3.13805 28.6986 3.13813 28.6989 3.13815 28.699C3.13823 28.6993 3.13831 28.6995 3.86128 28.5ZM4.72321 26.1993C4.88717 25.6042 5.196 25.2035 5.46065 24.9511C5.59365 24.8243 5.71458 24.7359 5.79773 24.6816C5.83912 24.6545 5.87053 24.6363 5.88856 24.6263C5.89755 24.6213 5.90314 24.6184 5.90488 24.6175C5.90575 24.6171 5.90565 24.6171 5.90453 24.6177C5.90396 24.618 5.90315 24.6184 5.90207 24.6189C5.90153 24.6191 5.90092 24.6194 5.90025 24.6198C5.89991 24.6199 5.89956 24.6201 5.89919 24.6203C5.899 24.6204 5.89871 24.6205 5.89862 24.6205C5.89833 24.6207 5.89803 24.6208 5.57531 23.9438C5.2526 23.2668 5.2523 23.2669 5.25198 23.2671C5.25187 23.2671 5.25156 23.2673 5.25134 23.2674C5.2509 23.2676 5.25044 23.2678 5.24996 23.268C5.249 23.2685 5.24798 23.269 5.24688 23.2695C5.24468 23.2706 5.24219 23.2718 5.23942 23.2732C5.23388 23.2759 5.22721 23.2793 5.21947 23.2833C5.204 23.2912 5.18424 23.3017 5.16067 23.3147C5.11359 23.3409 5.05105 23.3776 4.97713 23.4259C4.82964 23.5223 4.63442 23.6663 4.42539 23.8656C4.00599 24.2656 3.52723 24.8931 3.27711 25.8008L4.72321 26.1993ZM3.86128 21.0129C3.39282 20.4272 3.39267 20.4273 3.39251 20.4275C3.39245 20.4275 3.39228 20.4276 3.39216 20.4277C3.39191 20.4279 3.39163 20.4282 3.39132 20.4284C3.3907 20.4289 3.38998 20.4295 3.38914 20.4302C3.38745 20.4315 3.38533 20.4333 3.38276 20.4353C3.37763 20.4395 3.37075 20.4451 3.36222 20.4522C3.34517 20.4663 3.32151 20.4861 3.29204 20.5114C3.23315 20.5619 3.15082 20.6345 3.05153 20.727C2.85344 20.9117 2.58518 21.1784 2.29973 21.511C1.73824 22.1653 1.06587 23.1257 0.774004 24.2563L2.2264 24.6313C2.43627 23.8182 2.94444 23.0631 3.43805 22.4879C3.68015 22.2058 3.90809 21.9792 4.07431 21.8243C4.15717 21.747 4.22402 21.6882 4.26877 21.6498C4.29112 21.6306 4.3079 21.6166 4.31833 21.608C4.32354 21.6037 4.32717 21.6007 4.3291 21.5991C4.33007 21.5984 4.33061 21.5979 4.33072 21.5978C4.33078 21.5978 4.33073 21.5978 4.33056 21.598C4.33048 21.598 4.33037 21.5981 4.33023 21.5982C4.33017 21.5983 4.33004 21.5984 4.33001 21.5984C4.32988 21.5985 4.32974 21.5986 3.86128 21.0129ZM0.774004 24.2563C0.506083 25.2943 0.377203 26.4867 0.313758 27.3988C0.281732 27.8591 0.265816 28.257 0.257893 28.5405C0.253927 28.6823 0.251954 28.7958 0.250972 28.8746C0.250481 28.914 0.250238 28.9447 0.250117 28.9659C0.250057 28.9765 0.250028 28.9848 0.250013 28.9906C0.250006 28.9935 0.250003 28.9958 0.250001 28.9974C0.25 28.9982 0.25 28.9989 0.25 28.9994C0.25 28.9997 0.25 28.9999 0.25 29C0.25 29.0001 0.25 29.0002 0.25 29.0003C0.25 29.0004 0.25 29.0004 1 29C1.75 28.9996 1.75 28.9996 1.75 28.9997C1.75 28.9997 1.75 28.9997 1.75 28.9997C1.75 28.9997 1.75 28.9997 1.75 28.9996C1.75 28.9995 1.75 28.9992 1.75 28.9988C1.75 28.9979 1.75 28.9964 1.75001 28.9943C1.75002 28.9901 1.75004 28.9834 1.75009 28.9744C1.7502 28.9565 1.75041 28.9291 1.75086 28.8933C1.75175 28.8216 1.75358 28.7158 1.75731 28.5824C1.76477 28.3153 1.77983 27.9385 1.81014 27.5028C1.87136 26.6227 1.99258 25.5371 2.2264 24.6313L0.774004 24.2563Z" fill="#565C60"/>
</svg>
