<svg width="20" height="20" viewBox="0 0 20 20" fill="none" xmlns="http://www.w3.org/2000/svg">
<g clip-path="url(#clip0)">
<path d="M20 15.7925C20 16.0481 19.9526 16.3819 19.858 16.7937C19.7633 17.2056 19.6638 17.5298 19.5597 17.7665C19.3608 18.2399 18.7831 18.7417 17.8267 19.2719C16.9366 19.7548 16.0559 19.9962 15.1847 19.9962C14.929 19.9962 14.678 19.9797 14.4318 19.9465C14.1856 19.9134 13.9134 19.8542 13.6151 19.769C13.3168 19.6838 13.0942 19.6152 12.9474 19.5631C12.8007 19.511 12.5379 19.414 12.1591 19.2719C11.7803 19.1299 11.5483 19.0447 11.4631 19.0163C10.535 18.6849 9.70644 18.292 8.97727 17.8376C7.77462 17.0896 6.52462 16.0671 5.22727 14.77C3.92992 13.4728 2.9072 12.2231 2.15909 11.0207C1.70455 10.2916 1.31155 9.46318 0.980114 8.53533C0.951704 8.45012 0.866477 8.21815 0.724432 7.83944C0.582386 7.46072 0.485322 7.19798 0.433239 7.05123C0.381155 6.90448 0.3125 6.68198 0.227273 6.38374C0.142045 6.0855 0.0828598 5.8133 0.0497159 5.56714C0.016572 5.32097 0 5.07007 0 4.81444C0 3.94339 0.241477 3.06287 0.724432 2.17289C1.25473 1.21663 1.75663 0.639084 2.23011 0.440258C2.46686 0.336111 2.79119 0.236698 3.20312 0.142019C3.61506 0.0473396 3.94886 0 4.20455 0C4.33712 0 4.43655 0.0142019 4.50284 0.0426056C4.67329 0.0994131 4.92424 0.459194 5.25568 1.12195C5.35985 1.30184 5.50189 1.55747 5.68182 1.88885C5.86174 2.22023 6.02746 2.52083 6.17898 2.79067C6.33049 3.0605 6.47727 3.31377 6.61932 3.55047C6.64773 3.58834 6.73059 3.70669 6.8679 3.90552C7.00521 4.10434 7.10701 4.2724 7.17329 4.40968C7.23958 4.54697 7.27273 4.68189 7.27273 4.81444C7.27273 5.00379 7.13778 5.24049 6.8679 5.52453C6.59801 5.80857 6.30445 6.06893 5.98722 6.30563C5.66998 6.54233 5.37642 6.79323 5.10653 7.05833C4.83665 7.32343 4.7017 7.5412 4.7017 7.71162C4.7017 7.79683 4.72538 7.90334 4.77273 8.03116C4.82008 8.15898 4.86032 8.25602 4.89347 8.3223C4.92661 8.38857 4.9929 8.50219 5.09233 8.66314C5.19176 8.8241 5.24621 8.91404 5.25568 8.93298C5.97538 10.2301 6.79924 11.3426 7.72727 12.2704C8.6553 13.1983 9.76799 14.022 11.0653 14.7415C11.0843 14.751 11.1742 14.8055 11.3352 14.9049C11.4962 15.0043 11.6098 15.0706 11.6761 15.1037C11.7424 15.1368 11.8395 15.1771 11.9673 15.2244C12.0952 15.2718 12.2017 15.2954 12.2869 15.2954C12.4574 15.2954 12.6752 15.1605 12.9403 14.8907C13.2055 14.6208 13.4564 14.3273 13.6932 14.0102C13.9299 13.693 14.1903 13.3995 14.4744 13.1296C14.7585 12.8598 14.9953 12.7249 15.1847 12.7249C15.3172 12.7249 15.4522 12.758 15.5895 12.8243C15.7268 12.8906 15.8949 12.9923 16.0937 13.1296C16.2926 13.2669 16.411 13.3498 16.4489 13.3782C16.6856 13.5202 16.9389 13.6669 17.2088 13.8184C17.4787 13.9699 17.7794 14.1356 18.1108 14.3155C18.4422 14.4954 18.6979 14.6374 18.8778 14.7415C19.5407 15.0729 19.9006 15.3238 19.9574 15.4942C19.9858 15.5605 20 15.6599 20 15.7925Z" fill="#565C60"/>
</g>
<defs>
<clipPath id="clip0">
<rect width="20" height="19.9962" fill="white"/>
</clipPath>
</defs>
</svg>
