<svg width="42" height="34" viewBox="0 0 42 34" fill="none" xmlns="http://www.w3.org/2000/svg">
<path d="M11.4541 4.04305C9.1228 4.44232 6.64181 5.02284 4.35548 5.86689C2.23446 6.64992 2.01698 8.92794 1.58154 11.0034C0.806367 14.6981 0.805937 17.5818 1.58154 22.1324C1.98739 24.5137 3.04766 26.028 5.28013 27.2689C9.90055 29.8372 20.9992 29.8373 20.9992 29.8373C20.9992 29.8373 31.1675 29.8372 36.7182 27.2689C39.0474 26.1912 40.0098 24.5135 40.4168 22.1324C41.1945 17.5818 41.1945 15.419 40.4168 11.0034C40.0492 8.91665 39.6824 6.82103 37.645 5.86689C35.749 4.97895 33.3025 4.38266 30.8717 3.98223M11.4541 4.04305C16.59 3.16345 20.9992 3.16355 20.9992 3.16355C20.9992 3.16355 25.9025 3.16364 30.8717 3.98223M11.4541 4.04305L12.2308 1.00082L29.3183 1.00082L30.8717 3.98223M34.7552 29.8373L37.862 29.8373L37.862 33L34.7552 33L3.68702 33L3.68702 29.8373L6.79385 29.8373L34.7552 29.8373Z" stroke="#5D5E5F" stroke-width="1.5" stroke-linecap="round" stroke-linejoin="round"/>
<path d="M4.49431 12.1722C4.86443 10.5382 5.04929 8.74471 6.85216 8.12823C8.79554 7.46371 10.9044 7.00667 12.886 6.69233C17.2515 5.99982 20.9993 5.9999 20.9993 5.9999C20.9993 5.9999 25.1671 5.99997 29.3909 6.64445C31.4571 6.9597 33.5366 7.42916 35.1482 8.12823C36.88 8.87942 37.1919 10.5293 37.5042 12.1722C38.1653 15.6486 38.1653 17.3513 37.5042 20.934C37.1584 22.8086 36.3403 24.1295 34.3604 24.978C29.6423 26.9999 20.9993 27 20.9993 27C20.9993 27 11.5655 26.9999 7.63811 24.978C5.74051 24.001 4.83928 22.8088 4.49431 20.934C3.83505 17.3513 3.83541 15.081 4.49431 12.1722Z" fill="#5D5E5F" stroke="#5D5E5F" stroke-width="1.5" stroke-linecap="round" stroke-linejoin="round"/>
</svg>
