<svg width="58" height="31" viewBox="0 0 58 31" fill="none" xmlns="http://www.w3.org/2000/svg">
<path d="M10.25 27C10.25 28.7949 8.79493 30.25 7 30.25C5.20507 30.25 3.75 28.7949 3.75 27C3.75 25.2051 5.20507 23.75 7 23.75C8.79493 23.75 10.25 25.2051 10.25 27Z" stroke="#565C60" stroke-width="1.5"/>
<path d="M24.25 27C24.25 28.7949 22.7949 30.25 21 30.25C19.2051 30.25 17.75 28.7949 17.75 27C17.75 25.2051 19.2051 23.75 21 23.75C22.7949 23.75 24.25 25.2051 24.25 27Z" stroke="#565C60" stroke-width="1.5"/>
<circle cx="45" cy="27" r="3.25" stroke="#565C60" stroke-width="1.5"/>
<path d="M14.0456 26.2258L14.0458 26.6308L14.0486 21.4797M14.0456 26.2258C14.0456 26.2258 13.3804 25.0653 12.159 23.892M14.0456 26.2258C14.0456 26.2258 14.4734 25.5235 15.2385 24.6593M26.7584 25.8125C26.7584 25.8125 24.2129 21.4905 20.5815 21.4905M26.7584 25.8125L38.4286 21.4751M26.7584 25.8125L34.3832 25.5939M26.7584 25.8125L27.2106 24.8704M26.7584 25.8125H37.9873M26.7584 25.8125L30.1899 25.7656M37.9873 25.4686C37.9873 25.4686 40.39 21 43.9941 21M37.9873 25.4686L26.7584 22.7928M37.9873 25.4686L36.1853 25.5873M37.9873 25.4686L38.2079 23.4718M50.6905 24.2492V25.8995V26.8497M50.6905 24.2492C50.6905 24.2492 50.5821 24.1495 48.7996 22.7376C47.841 21.9784 46.9975 21 43.9941 21M50.6905 24.2492H52.0628M43.9941 21L39.9244 21.3474M20.5815 21.4905L14.0486 21.4797M20.5815 21.4905L24.9058 21.4787M20.5815 21.4905C18.0028 21.4905 16.4624 23.2768 15.2385 24.6593M7.53834 21.4737C2.99909 21.474 1 26.2258 1 26.2258V26.3505M7.53834 21.4737C9.833 21.4736 10.9103 22.6925 12.159 23.892M7.53834 21.4737H4.26917M7.53834 21.4737L10.6762 21.4766M1 27.9501V26.3505M26.7584 22.7928L27.2106 24.8704M26.7584 22.7928L24.9058 21.4787M38.4286 21.4751L37.5803 21.4753M38.4286 21.4751L36.1853 25.5873M38.4286 21.4751L33.2872 24.6593M38.4286 21.4751L38.2079 23.4718M38.4286 21.4751L39.9244 21.3474M50.6905 26.8497V28H52.0628M50.6905 26.8497L57 26.1318M57 26.1318V28H56.2035M57 26.1318V24.6098H56.8451H53.6124L53.2399 28L52.1074 24.4314M57 24.2492H56.2035M14.0486 21.4797L13.1038 22.6858M14.0486 21.4797L10.6762 21.4766M12.159 23.892L15.7988 22.5287M12.159 23.892L13.1038 22.6858M30.8438 21.4737L30.7791 25.5808L33.2872 24.6593M30.8438 21.4737L27.2106 24.8704M30.8438 21.4737L33.2872 24.6593M34.3832 25.5939L37.5803 21.4753M34.3832 25.5939L36.1853 25.5873M37.5803 21.4753L33.2872 21.4763M52.0628 24.2492L52.1074 24.4314M52.0628 24.2492H54.7233M52.0628 28L52.1074 24.4314M52.0628 28H54.5314M55.407 24.2492V28M55.407 24.2492H54.7233M55.407 24.2492H56.2035M33.2872 24.6593V21.4763M37.9873 24.2492V25.8125M37.9873 25.8125V26.0459M37.9873 26.0459V27.444H33.6634L32.525 25.9989M37.9873 26.0459L32.525 25.9989M32.525 25.9989L31.3867 25.7186L30.1899 25.7656M1 26.3505V23.2931M4.26917 21.4737H1V23.2931M4.26917 21.4737L1 23.2931M13.1038 22.6858L10.6762 21.4766M24.9058 21.4787L27.5055 21.4781M28.8901 21.4778L30.1899 25.7656M28.8901 21.4778L33.2872 21.4763M28.8901 21.4778L27.5055 21.4781M38.2079 23.4718L39.9244 21.3474M54.7233 24.2492L54.5314 28M54.5314 28H56.2035M15.2385 24.6593L14.8808 23.2931L16.8637 22.0063L18.8467 21.4936L27.5055 21.4781M28.7616 25.0823L28.2658 22.0063L29.2568 23.0316L35.2057 22.0063L33.6634 25.9989M56.2035 24.2492V28M25.7871 23.0316L28.2658 25.5949L29.3538 24.2492" stroke="#565C60" stroke-width="1.5" stroke-linecap="round" stroke-linejoin="round"/>
<path d="M55.626 10.1984L53.1527 3.56349L50.1298 1H42.1691M55.626 10.1984L54.3823 20M55.626 10.1984L54.2415 10.398M55.626 10.1984L56.313 11.0278M51.7646 20L52.8571 10.5976M51.7646 20H53.0734M51.7646 20C51.7646 20 51.5437 19.6593 50.8805 19.196M47.365 17.6627L48.3285 10.3434M47.365 17.6627C46.9965 17.5601 46.6134 17.4764 46.2229 17.4088M47.365 17.6627C47.859 17.8003 48.3009 17.9453 48.6958 18.0929M42.1691 8.05639V1M42.1691 8.05639V17.1681M42.1691 8.05639L43.049 8.38311M50.0883 10.9969V18.7141M50.0883 10.9969L49.2084 10.6702M50.0883 10.9969L51.4727 10.7973M42.1691 1H41.3768M40.5845 1V17.2552M40.5845 1H39.7923M40.5845 1H41.3768M40.5845 17.2552C40.2846 17.2796 40.0177 17.3056 39.7923 17.33M40.5845 17.2552C40.8284 17.2355 41.094 17.2169 41.3768 17.2013M43.049 17.1573L43.9289 8.70983M43.049 17.1573C42.7471 17.156 42.4527 17.1601 42.1691 17.1681M43.049 17.1573C43.4104 17.1588 43.7824 17.168 44.1588 17.1874M43.9289 8.70983L45.2488 9.19992M43.9289 8.70983L43.049 8.38311M42.1691 17.1681C41.8936 17.1759 41.6284 17.1874 41.3768 17.2013M42.1691 17.1681L43.049 8.38311M45.0753 17.2552L46.5686 9.69M45.0753 17.2552C44.7691 17.2252 44.4625 17.203 44.1588 17.1874M45.0753 17.2552C45.4606 17.2931 45.8452 17.3434 46.2229 17.4088M46.5686 9.69L45.2488 9.19992M46.5686 9.69L47.4486 10.0167M48.3285 10.3434L47.4486 10.0167M48.3285 10.3434L49.2084 10.6702M50.0883 18.7141C49.7073 18.5106 49.2476 18.2992 48.6958 18.0929M50.0883 18.7141C50.4039 18.8827 50.6654 19.0458 50.8805 19.196M52.8571 10.5976L54.2415 10.398M52.8571 10.5976L51.4727 10.7973M54.3823 20H53.0734M54.3823 20H55.9134M54.2415 10.398L53.0734 20M45.2488 9.19992L44.1588 17.1874M47.4486 10.0167L46.2229 17.4088M49.2084 10.6702L48.6958 18.0929M51.4727 10.7973L50.8805 19.196M56.313 11.0278L57 11.8571V20H55.9134M56.313 11.0278L55.9134 20M39.7923 1H39V17.4292C39 17.4292 39.295 17.3838 39.7923 17.33M39.7923 1V17.33M41.3768 1V17.2013" stroke="#565C60" stroke-width="1.5" stroke-linecap="round" stroke-linejoin="round"/>
</svg>
