<svg width="52" height="31" viewBox="0 0 52 31" fill="none" xmlns="http://www.w3.org/2000/svg">
<path d="M13.25 27.0004C13.25 28.7956 11.7949 30.2507 9.99999 30.2507C8.20514 30.2507 6.75 28.7956 6.75 27.0004C6.75 25.2052 8.20514 23.75 9.99999 23.75C11.7949 23.75 13.25 25.2052 13.25 27.0004Z" stroke="#565C60" stroke-width="1.5"/>
<path d="M22.25 27.0004C22.25 28.7956 20.7949 30.2507 19 30.2507C17.2051 30.2507 15.75 28.7956 15.75 27.0004C15.75 25.2052 17.2051 23.75 19 23.75C20.7949 23.75 22.25 25.2052 22.25 27.0004Z" stroke="#565C60" stroke-width="1.5"/>
<path d="M26.878 22.0516V23.6994H25.4655M26.878 22.0516V20.0487M26.878 22.0516H28.1888M36.8595 20.2207V29V22.0516L28.1888 22.0516M36.8595 20.2207H46.5638C46.5638 20.2207 51.0004 18.4794 51 12.346C51.0007 6.02937 46.5638 4.8526 46.5638 4.8526L27.2491 4.8526M36.8595 20.2207L28.1888 20.0713M4.97415 19.6714C4.97415 19.6714 3.65932 19.52 2.54222 18.2067M4.97415 19.6714L4.02053 25.9442L2.54222 18.2067M4.97415 19.6714L6.53806 19.6984M24.0529 23.6994C24.0529 23.6994 23.6454 23.2352 22.9228 22.729M24.0529 23.6994L24.8942 20.0146M24.0529 23.6994H25.4655M4.97415 23.9493L4.02053 26.0795M4.97415 23.9493L6.53806 19.6984M4.97415 23.9493C4.97415 23.9493 5.64974 22.3866 7.54507 21.7109M4.02053 26.0795H2.66504V20.2207M4.02053 26.0795V19.4607M2.66504 20.2207H0.999998V18.2067M2.66504 20.2207L0.999998 18.2067M0.999998 18.2067H2.54222M2.54222 18.2067C1.71719 17.2368 0.999998 14.6242 0.999998 11.9798C1.18484 6.67019 4.97415 4.8526 4.97415 4.8526L20.0403 4.8526M19.1257 21.4556C18.2693 21.4556 17.5288 21.6648 16.909 21.9619M19.1257 21.4556C19.8636 21.4556 20.5401 21.5953 21.1397 21.805M19.1257 21.4556L19.2135 20.6869M20.0403 4.8526V3.57098C20.0403 3.57098 19.9931 3.56639 19.917 3.55499M20.0403 4.8526H27.2491M27.2491 3.57098V4.8526M27.2491 3.57098C27.2491 3.57098 28.0046 3.56632 28.3582 3.29634C28.7675 2.98383 28.9684 2.61515 28.9127 2.10626C28.8673 1.69177 28.7038 1.42881 28.3582 1.19081C27.9977 0.942545 27.2491 1.00773 27.2491 1.00773H25.6713H24.4125H23.1538H20.0403C20.0403 1.00773 19.2917 0.942545 18.9312 1.19081C18.5856 1.42881 18.409 1.69057 18.3767 2.10626C18.3712 2.17627 18.3714 2.24268 18.3767 2.30602C18.4077 2.67538 18.6157 2.94033 18.9312 3.2048C19.193 3.42419 19.6872 3.52059 19.917 3.55499M27.2491 3.57098L26.878 3.57017L23.3975 3.56258L22.1467 3.55985L19.917 3.55499M6.53806 19.6984L7.04157 19.707M7.54507 21.7109L7.04157 19.707M7.54507 21.7109C7.99782 21.5495 8.50178 21.4245 9.05559 21.3624M7.04157 19.707L12.2856 19.7974M9.05559 21.3624C9.30507 21.3344 9.56468 21.3192 9.83427 21.3192C10.0904 21.3192 10.335 21.3344 10.5685 21.3624M9.05559 21.3624L8.55208 19.9595L10.5685 21.3624M10.5685 21.3624C10.7416 21.3832 10.9087 21.411 11.0696 21.445M12.2856 19.7974L11.0696 21.445M12.2856 19.7974L13.7751 19.823M11.0696 21.445C11.5219 21.5405 11.9264 21.6844 12.2856 21.856M12.2856 21.856L13.7751 19.823M12.2856 21.856C12.5821 21.9976 12.8476 22.158 13.0836 22.3255M13.7751 19.823L15.0338 19.8447M13.5871 22.729L16.2925 19.8664M13.5871 22.729C13.4373 22.5939 13.2696 22.4575 13.0836 22.3255M13.5871 22.729C13.794 22.9155 13.9672 23.0994 14.1082 23.2656M16.2925 19.8664L15.0338 19.8447M16.2925 19.8664L16.909 21.9619M16.2925 19.8664L18.4165 19.903M13.0836 22.3255L15.0338 19.8447M16.909 21.9619C15.3886 22.6908 14.5942 23.9493 14.5942 23.9493C14.5942 23.9493 14.4396 23.6562 14.1082 23.2656M14.1082 23.2656L18.4165 19.903M18.4165 19.903L19.3013 19.9182M19.3013 19.9182L21.1397 19.9499M19.3013 19.9182L19.2135 20.6869M21.1397 21.805V20.8774M21.1397 21.805L23.3878 19.9886M21.1397 21.805C21.8503 22.0534 22.4531 22.4001 22.9228 22.729M21.1397 19.9499V20.8774M21.1397 19.9499L23.3878 19.9886M21.1397 20.8774L19.2135 20.6869M23.3878 19.9886L23.8166 19.996M22.9228 22.729L23.8166 19.996M23.8166 19.996L24.8942 20.0146M24.8942 20.0146L26.878 20.0487M25.6713 20.2207L25.4655 23.6994M26.878 20.0487L28.1888 20.0713M28.1888 20.0713V22.0516M29.6993 20.2207V21.805L30.9876 20.2207L31.4178 21.805L32.7204 20.4582L33.2239 21.4556L34.7344 20.6869L35.2379 21.805L36.2449 20.6869" stroke="#565C60" stroke-width="1.5" stroke-linecap="round" stroke-linejoin="round"/>
<path d="M5.92497 7H45.6885C45.6885 7 48.0696 7.21875 47.9984 12.5C47.9273 17.7813 45.6885 18 45.6885 18H5.92497C5.92497 18 3.98995 17.178 4.00004 12.5C4.01013 7.82197 5.92497 7 5.92497 7Z" fill="#565C60"/>
</svg>
