<svg width="143" height="27" viewBox="0 0 143 27" fill="none" xmlns="http://www.w3.org/2000/svg"><path d="M9.146 0L0 4.604v17.792L9.146 27l9.146-4.604V4.604L9.146 0zM2.843 6.346l6.18-3.111 6.303 3.11v3.111L9.023 6.594v6.844h-6.18V6.346zM15.326 20.53l-6.18 3.11-6.303-3.11v-3.11l6.303 2.861v-6.843h6.18v7.092zm16.837-4.78v-4.061l.943-.812h5.657V8.71H27.718l-2.02 1.895v6.226l2.02 1.895h11.045V16.56h-5.657l-.943-.812zm89.108.811l-.911-.812v-4.06l.911-.812h5.469V8.71h-10.677l-1.954 1.895v6.226l1.954 1.895h10.677V16.56h-5.469zm21.148-5.684V8.71h-14.372v2.166h4.068v7.85h6.101v-7.85h4.203zm-75.471 2.436l.912-.812V10.2l-1.563-1.49H55.75v10.018h11.068l1.563-1.49v-2.436l-1.433-1.49zm-5.73-2.707h3.777l.52.541v.948l-.78.676h-3.646v-2.165h.13zm4.819 5.685l-.521.541h-4.297v-2.03h4.036l.782.677v.812zM95.674 8.71h-11.18v10.017h5.927V15.75h5.253l1.886-1.76v-3.52l-1.886-1.76zm-.404 4.332l-.808.812h-4.041v-3.113h4.041l.808.677v1.624zm-48.209 3.519v-2.03h4.818v-1.624h-4.818v-2.03h6.51V8.71h-12.63v10.017h12.63v-2.166h-6.51zm32.837 0H76.74v-2.03h4.737v-1.624H76.74v-2.03h6.447V8.71h-12.63v10.017h12.63v-2.166h-3.29zm25.736 0v-2.03h4.984v-1.624h-4.984v-2.03h6.735V8.71H99.303v10.016h13.066V16.56h-6.735z" fill="#009EE3"/></svg>