<svg width="51" height="30" viewBox="0 0 51 30" fill="none" xmlns="http://www.w3.org/2000/svg"><path d="M37.595 7.253v2.315H24.487c-4.629 0-13.195.008-13.195.008V5.235h2.51v2.026l19.38-.007V1h2.267v6.254l2.146-.001z" fill="#565C60"/><path d="M25.494 5.227h-2.268V3.504h2.268v1.723zM16.44 21.013v-8.577h16.01v8.577H16.44zm33.736 2.931h-44.6S4.413 24.497 4 26c-.414 1.503-.139 2.5-.139 2.5h46.315v-4.556z" fill="#565C60"/><path d="M35.45 20.96l-.75-.003a.75.75 0 00.75.752v-.75zm.75-9.097a.75.75 0 10-1.5.003l1.5-.002zm1.395-4.61h.75a.75.75 0 00-.75-.75v.75zm0 2.315v.75a.75.75 0 00.75-.75h-.75zm-26.303.008h-.75a.75.75 0 00.751.75v-.75zm0-2.315h.75-.75zm2.161 13.752v.75a.75.75 0 00.75-.748l-.75-.002zm.782-9.092a.75.75 0 10-1.5-.005l1.5.005zm-.432-4.66h-.75a.75.75 0 00.75.75v-.75zm0-2.026h.75a.75.75 0 00-.75-.75v.75zm-2.51 0v-.75a.75.75 0 00-.75.75h.75zM33.18 7.261h-.75c0 .414.336.75.75.75v-.75zm2.268 0v.75a.75.75 0 00.75-.75h-.75zm0-6.261h.75a.75.75 0 00-.75-.75V1zM33.18 1V.25a.75.75 0 00-.75.75h.75zm-8.694 8.568v.75-.75zm-1.26-4.34h-.75c0 .414.335.75.75.75v-.75zm2.267 0v.75a.75.75 0 00.75-.75h-.75zm0-1.724h.75a.75.75 0 00-.75-.75v.75zm-2.268 0v-.75a.75.75 0 00-.75.75h.75zM3.861 21.013v-.75a.75.75 0 00-.468.164l.468.586zm12.579-8.577v-.75a.75.75 0 00-.75.75h.75zm0 8.577h-.75c0 .414.336.75.75.75v-.75zm16.01 0v.75a.75.75 0 00.75-.75h-.75zm0-8.577h.75a.75.75 0 00-.75-.75v.75zM5.575 23.944v-.75a.75.75 0 00-.322.073l.322.677zm44.601 0h.75a.75.75 0 00-.75-.75v.75zm0 4.556v.75a.75.75 0 00.75-.75h-.75zm-46.315 0l-.723.2a.75.75 0 00.723.55v-.75zm.14-2.5l-.724-.2L4 26zm-2.5-1.556l.725.187-.726-.187zm34.698-3.483a2072.31 2072.31 0 00.001-8.158v-.939h-.75l-.75.002v.939a3621.988 3621.988 0 010 8.152l1.5.004zm.646-13.708v2.315h1.5V7.253h-1.5zM12.042 9.576V7.26h-1.5v2.315h1.5zm2.161 11.44l.032-9.095-1.5-.005-.032 9.094 1.5.005zm-.4-13.005l19.378-.007v-1.5l-19.378.007v1.5zm19.378-.007h2.268v-1.5H33.18v1.5zm2.268 0l2.147-.001v-1.5h-2.147v1.5zM13.053 5.235v2.026h1.5V5.235h-1.5zm-1.76.75h2.51v-1.5h-2.51v1.5zm.75 1.276V5.235h-1.5v2.026h1.5zm21.138.75h2.268v-1.5h-2.268v1.5zm3.018-.75v-.007h-1.5v.007h1.5zm0-.007V1h-1.5v6.254h1.5zM35.45.25h-2.268v1.5h2.268V.25zM32.431 1v6.254h1.5V1h-1.5zm0 6.254v.007h1.5v-.007h-1.5zm5.164 2.314v-.75H24.486v1.5a44421.788 44421.788 0 0111.71 0h1.399v-.75zm-13.109-.75a17692.746 17692.746 0 00-12.817.007h-.377v.75l.001.75h1.411a60250.434 60250.434 0 0111.783-.007v-1.5zm-1.26-2.84h2.268v-1.5h-2.268v1.5zm3.018-.75V3.503h-1.5v1.723h1.5zm-.75-2.474h-2.268v1.5h2.268v-1.5zm-3.018.75v1.723h1.5V3.504h-1.5zm-9.023 16.759H3.861v1.5h9.592v-1.5zm21.996 1.446H51v-1.5H35.45v1.5zm-19.76-9.273v8.577h1.5v-8.577h-1.5zm.75 9.327H32.45v-1.5H16.44v1.5zm16.761-.75v-8.577h-1.5v8.577h1.5zm-.75-9.327H16.44v1.5h16.01v-1.5zM5.575 24.694h44.601v-1.5h-44.6v1.5zm43.851-.75V28.5h1.5v-4.556h-1.5zm.75 3.806H3.861v1.5h46.316v-1.5zm-46.315.75a98.87 98.87 0 01.724-.198v.004a5.228 5.228 0 01.137-2.107l-1.445-.398a6.724 6.724 0 00-.251 2.042 4.862 4.862 0 00.092.774 2.047 2.047 0 00.017.07l.002.007v.003l.001.001v.001l.723-.199zm.862-2.3c.164-.596.473-.997.738-1.249a2.388 2.388 0 01.444-.334.056.056 0 01-.005.003h-.001l-.324-.676a77.101 77.101 0 00-.323-.677l-.002.001a.064.064 0 01-.003.002l-.008.003a.996.996 0 00-.078.042 3.891 3.891 0 00-.735.55c-.42.4-.899 1.028-1.149 1.936l1.446.398zm-.862-5.187a120.688 120.688 0 00-.469-.585l-.003.002-.006.005-.02.017-.071.06a9.878 9.878 0 00-.992 1c-.562.653-1.234 1.614-1.526 2.744l1.452.375c.21-.813.718-1.568 1.212-2.143a8.36 8.36 0 01.891-.889l.002-.001H4.33l-.469-.585zM.774 24.256c-.268 1.038-.397 2.23-.46 3.143a27.84 27.84 0 00-.064 1.598V29h1.5v-.006a6.167 6.167 0 010-.1l.007-.312c.008-.267.023-.643.053-1.08.061-.88.183-1.965.416-2.87l-1.452-.376z" fill="#565C60"/></svg>