<svg width="20" height="20" viewBox="0 0 20 20" fill="none" xmlns="http://www.w3.org/2000/svg"><g clip-path="url(#clip0)"><path d="M20 15.793c0 .255-.047.589-.142 1a5.646 5.646 0 01-.298.974c-.2.473-.777.975-1.733 1.505-.89.483-1.771.724-2.642.724-.256 0-.507-.016-.753-.05a5.833 5.833 0 01-.817-.177c-.298-.085-.52-.154-.668-.206a55.98 55.98 0 01-.788-.291c-.379-.142-.61-.227-.696-.256a12.87 12.87 0 01-2.486-1.178c-1.202-.748-2.452-1.77-3.75-3.068-1.297-1.297-2.32-2.547-3.068-3.75A12.864 12.864 0 01.98 8.536a30.254 30.254 0 00-.256-.696 55.93 55.93 0 01-.29-.788c-.054-.148-.122-.37-.208-.668a5.834 5.834 0 01-.177-.817A5.635 5.635 0 010 4.814c0-.87.241-1.751.724-2.641C1.254 1.217 1.757.639 2.23.44c.237-.104.561-.203.973-.298C3.615.047 3.95 0 4.205 0c.132 0 .232.014.298.043.17.056.421.416.753 1.079.104.18.246.435.426.767.18.331.345.632.497.902.151.27.298.523.44.76.029.037.112.156.249.355.137.198.239.366.305.504.067.137.1.272.1.404 0 .19-.135.426-.405.71-.27.285-.564.545-.88.782a8.31 8.31 0 00-.881.752c-.27.265-.405.483-.405.654a.96.96 0 00.07.32c.048.127.088.224.121.29.034.067.1.18.2.341.099.161.153.251.163.27.72 1.297 1.543 2.41 2.471 3.337.928.928 2.041 1.752 3.338 2.472.02.009.11.063.27.163.161.1.275.166.341.199s.163.073.291.12a.959.959 0 00.32.071c.17 0 .388-.134.653-.404a8.57 8.57 0 00.753-.88c.237-.318.497-.611.781-.881.284-.27.521-.405.71-.405.133 0 .268.033.405.1.138.066.306.167.505.305.199.137.317.22.355.248.237.142.49.289.76.44.27.152.57.318.902.498.331.18.587.321.767.425.663.332 1.023.583 1.08.753a.796.796 0 01.042.299z" fill="#fff"/></g><defs><clipPath id="clip0"><path fill="#fff" d="M0 0h20v19.996H0z"/></clipPath></defs></svg>