<svg width="13" height="13" viewBox="0 0 13 13" fill="none" xmlns="http://www.w3.org/2000/svg"><path d="M13 10.267c0 .166-.03.383-.092.651a3.674 3.674 0 01-.194.632c-.13.308-.505.634-1.127.98-.578.313-1.15.47-1.717.47-.166 0-.33-.01-.49-.032a3.8 3.8 0 01-.53-.116 7.958 7.958 0 01-.434-.134 37.451 37.451 0 01-.513-.189 20.014 20.014 0 00-.452-.166 8.363 8.363 0 01-1.616-.766c-.782-.487-1.594-1.152-2.437-1.995-.844-.843-1.508-1.655-1.995-2.437a8.362 8.362 0 01-.766-1.616 19.663 19.663 0 00-.166-.452 36.328 36.328 0 01-.19-.513 7.918 7.918 0 01-.133-.434 3.793 3.793 0 01-.116-.53A3.664 3.664 0 010 3.13c0-.566.157-1.139.47-1.717.346-.622.672-.998.98-1.127.153-.067.364-.132.632-.194C2.35.031 2.567 0 2.733 0c.086 0 .15.01.194.028.11.037.274.27.49.701.067.117.16.284.276.499.117.215.225.41.323.586.099.176.194.34.287.494l.161.231c.09.13.156.239.199.328.043.09.064.177.064.263 0 .123-.087.277-.263.462a4.5 4.5 0 01-.572.507 5.56 5.56 0 00-.573.49c-.175.172-.263.314-.263.424 0 .056.015.125.046.208.031.083.057.146.079.19.021.043.064.116.129.221s.1.163.106.176a9.692 9.692 0 001.607 2.17 9.691 9.691 0 002.17 1.606c.012.006.07.041.175.106.105.065.178.108.221.13.044.02.107.047.19.078a.64.64 0 00.208.046c.11 0 .252-.088.424-.263a5.56 5.56 0 00.49-.573 4.5 4.5 0 01.507-.572c.185-.176.339-.263.462-.263.086 0 .174.021.263.064.09.043.199.11.328.199l.23.161c.155.093.32.188.495.287.175.098.37.206.586.323.216.117.382.21.499.277.43.215.664.378.701.49a.516.516 0 01.028.193z" fill="#fff"/></svg>