<svg width="42" height="34" viewBox="0 0 42 34" fill="none" xmlns="http://www.w3.org/2000/svg"><path d="M11.454 4.043c-2.331.4-4.812.98-7.099 1.824-2.12.783-2.338 3.06-2.773 5.136-.776 3.695-.776 6.579 0 11.13.405 2.38 1.466 3.895 3.698 5.136C9.9 29.837 21 29.837 21 29.837s10.168 0 15.718-2.568c2.33-1.078 3.292-2.755 3.699-5.137.777-4.55.777-6.713 0-11.129-.368-2.086-.735-4.182-2.772-5.136-1.896-.888-4.343-1.484-6.773-1.885m-19.418.061c5.136-.88 9.545-.88 9.545-.88s4.904 0 9.873.82m-19.418.06l.777-3.042h17.087l1.554 2.981m3.883 25.855h3.107V33H3.687v-3.163h31.068z" stroke="#5D5E5F" stroke-width="1.5" stroke-linecap="round" stroke-linejoin="round"/><path d="M4.494 12.172c.37-1.634.555-3.427 2.358-4.044 1.944-.664 4.052-1.121 6.034-1.436C17.252 6 20.999 6 20.999 6s4.168 0 8.392.644c2.066.316 4.146.785 5.757 1.484 1.732.751 2.044 2.401 2.356 4.044.661 3.477.661 5.18 0 8.762-.346 1.875-1.164 3.195-3.144 4.044C29.642 27 21 27 21 27s-9.434 0-13.362-2.022c-1.897-.977-2.799-2.17-3.144-4.044-.659-3.583-.659-5.853 0-8.762z" fill="#5D5E5F" stroke="#5D5E5F" stroke-width="1.5" stroke-linecap="round" stroke-linejoin="round"/></svg>