<svg width="58" height="31" viewBox="0 0 58 31" fill="none" xmlns="http://www.w3.org/2000/svg"><path d="M10.25 27a3.25 3.25 0 11-6.5 0 3.25 3.25 0 016.5 0zm14 0a3.25 3.25 0 11-6.5 0 3.25 3.25 0 016.5 0z" stroke="#565C60" stroke-width="1.5"/><circle cx="45" cy="27" r="3.25" stroke="#565C60" stroke-width="1.5"/><path d="M14.046 26.226v.405l.003-5.151m-.003 4.746s-.666-1.16-1.887-2.334m1.887 2.334s.427-.703 1.193-1.567m11.52 1.154s-2.546-4.322-6.178-4.322m6.177 4.322l11.67-4.338m-11.67 4.337l7.625-.218m-7.625.218l.453-.942m-.453.942h11.23m-11.23 0l3.432-.046m7.797-.297S40.39 21 43.994 21m-6.007 4.469l-11.229-2.676m11.23 2.676l-1.803.118m1.802-.118l.22-1.997m12.483.777v2.601m0-2.6s-.108-.1-1.89-1.511C47.84 21.978 46.998 21 43.994 21m6.697 3.25h1.372M43.994 21l-4.07.347m-19.343.143l-6.532-.01m6.532.01l4.325-.011m-4.325.012c-2.578 0-4.119 1.786-5.342 3.168m-7.7-3.185C2.998 21.474 1 26.226 1 26.226v.125m6.538-4.877c2.295 0 3.372 1.218 4.621 2.418m-4.62-2.418h-3.27m3.27 0l3.137.003M1 27.95v-1.6m25.758-3.557l.453 2.077m-.453-2.077l-1.852-1.314m13.523-.004h-.849m.849 0l-2.244 4.112m2.244-4.112l-5.142 3.184m5.142-3.184l-.221 1.997m.22-1.997l1.496-.128m10.767 5.503V28h1.372m-1.373-1.15l6.31-.718m0 0V28h-.797M57 26.132V24.61h-3.388L53.24 28l-1.133-3.569M57 24.25h-.797M14.05 21.48l-.945 1.207m.945-1.206l-3.373-.003m1.483 2.415l3.64-1.363m-3.64 1.363l.945-1.206m17.74-1.212l-.065 4.107 2.508-.922m-2.443-3.185L27.21 24.87m3.633-3.396l2.443 3.185m1.096.935l3.197-4.119m-3.197 4.119l1.802-.007m1.395-4.112l-4.293.001m18.776 2.773l.044.182m-.044-.182h2.66M52.063 28l.044-3.569M52.063 28h2.468m.876-3.75V28m0-3.75h-.684m.684 0h.797m-22.917.41v-3.184m4.7 2.773v1.564m0 0v.233m0 0v1.398h-4.324l-1.138-1.445m5.462.047l-5.462-.047m0 0l-1.138-.28-1.197.047M1 26.35v-3.058m3.27-1.82H1v1.82m3.27-1.82L1 23.294m12.104-.607l-2.428-1.21m14.23.003h2.6m1.384-.001l1.3 4.288m-1.3-4.288l4.397-.002m-4.397.002h-1.384m10.702 1.994l1.716-2.125m14.8 2.902L54.53 28m0 0h1.672m-40.965-3.34l-.357-1.367 1.983-1.287 1.983-.512 8.659-.016m1.256 3.604l-.496-3.076.99 1.026 5.95-1.026L33.663 26m22.54-1.75V28m-30.416-4.968l2.479 2.563 1.088-1.346m26.272-14.051l-2.473-6.635L50.13 1h-7.96m13.456 9.198L54.382 20m1.244-9.802l-1.384.2m1.384-.2l.687.83M51.765 20l1.092-9.402M51.765 20h1.308m-1.308 0s-.221-.34-.885-.804m-3.515-1.533l.963-7.32m-.963 7.32a11.724 11.724 0 00-1.142-.254m1.142.254c.494.137.936.282 1.33.43M42.17 8.056V1m0 7.056v9.112m0-9.112l.88.327m7.04 2.614v7.717m0-7.717l-.88-.327m.88.327l1.384-.2M42.169 1h-.792m-.793 0v16.255m0-16.255h-.792m.792 0h.793m-.793 16.255c-.3.025-.566.05-.792.075m.792-.075c.244-.02.51-.038.793-.054m1.672-.044l.88-8.447m-.88 8.447c-.302-.001-.596.003-.88.011m.88-.01c.361 0 .733.01 1.11.03m-.23-8.478l1.32.49m-1.32-.49l-.88-.327m-.88 8.785c-.275.008-.54.02-.792.033m.792-.033l.88-8.785m2.026 8.872L46.57 9.69m-1.494 7.565a20.47 20.47 0 00-.916-.068m.916.068c.386.038.77.088 1.148.154m.346-7.719l-1.32-.49m1.32.49l.88.327m.88.326l-.88-.326m.88.326l.88.327m.88 8.044a11.607 11.607 0 00-1.393-.621m1.392.621c.316.169.577.332.792.482m1.977-8.598l1.385-.2m-1.385.2l-1.384.2M54.383 20h-1.31m1.31 0h1.53m-1.671-9.602L53.073 20M45.25 9.2l-1.09 7.987m3.29-7.17l-1.226 7.392m2.985-6.739l-.512 7.423m2.777-7.296l-.593 8.399m5.433-8.168l.687.83V20h-1.087m.4-8.972l-.4 8.972M39.793 1H39v16.43s.295-.046.792-.1m0-16.33v16.33M41.377 1v16.201" stroke="#565C60" stroke-width="1.5" stroke-linecap="round" stroke-linejoin="round"/></svg>