<svg width="52" height="31" viewBox="0 0 52 31" fill="none" xmlns="http://www.w3.org/2000/svg"><path d="M13.25 27a3.25 3.25 0 11-6.5 0 3.25 3.25 0 016.5 0zm9 0a3.25 3.25 0 11-6.5 0 3.25 3.25 0 016.5 0z" stroke="#565C60" stroke-width="1.5"/><path d="M26.878 22.052v1.647h-1.413m1.413-1.647v-2.003m0 2.003h1.31m8.671-1.831V29v-6.948h-8.67m8.67-1.831h9.705S51 18.479 51 12.346c0-6.317-4.436-7.493-4.436-7.493H27.249m9.61 15.368l-8.67-.15m-23.215-.4s-1.315-.151-2.432-1.464m2.432 1.464l-.953 6.273-1.479-7.737m2.432 1.464l1.564.027M24.053 23.7s-.408-.464-1.13-.97m1.13.97l.841-3.684m-.841 3.684h1.412m-20.49.25l-.954 2.13m.953-2.13l1.564-4.25m-1.564 4.25s.676-1.562 2.571-2.238M4.021 26.08H2.665v-5.86m1.356 5.86v-6.62m-1.356.76H1v-2.013m1.665 2.014L1 18.207m0 0h1.542m0 0C1.717 17.237 1 14.624 1 11.98c.185-5.31 3.974-7.127 3.974-7.127H20.04m-.914 16.603c-.857 0-1.597.209-2.217.506m2.217-.506c.738 0 1.414.14 2.014.349m-2.014-.35l.087-.768m.827-15.834V3.57s-.047-.005-.123-.016m.123 1.298h7.21m0-1.282v1.282m0-1.282s.755-.005 1.108-.275c.41-.312.61-.68.555-1.19-.046-.414-.21-.677-.555-.915-.36-.248-1.109-.183-1.109-.183H20.04s-.748-.065-1.109.183c-.345.238-.522.5-.554.915-.006.07-.006.137 0 .2.03.37.239.634.554.899.262.22.756.316.986.35m7.332.016h-.371l-3.48-.008-1.251-.003-2.23-.005M6.538 19.698l.504.009m.503 2.004l-.503-2.004m.503 2.004a6.718 6.718 0 011.51-.349m-2.013-1.655l5.244.09m-3.23 1.565a6.98 6.98 0 01.778-.043c.256 0 .501.015.735.043m-1.513 0l-.504-1.402 2.017 1.402m0 0c.173.021.34.049.5.083m1.217-1.648l-1.216 1.648m1.216-1.648l1.49.026m-2.706 1.622c.452.096.856.24 1.216.411m0 0l1.49-2.033m-1.49 2.033c.296.142.562.302.798.47m.691-2.503l1.259.022m-1.447 2.884l2.706-2.863m-2.706 2.863a5.538 5.538 0 00-.503-.403m.503.403c.207.187.38.37.521.537m2.184-3.4l-1.258-.021m1.258.021l.617 2.096m-.616-2.096l2.123.037m-5.332 2.423l1.95-2.481m1.875 2.117c-1.52.729-2.315 1.987-2.315 1.987s-.154-.293-.486-.683m0 0l4.308-3.363m0 0l.885.015m0 0l1.839.032m-1.839-.032l-.087.769m1.926 1.118v-.928m0 .928l2.248-1.816m-2.248 1.816c.71.248 1.313.595 1.783.924m-1.783-2.78v.928m0-.927l2.248.039m-2.248.888l-1.927-.19m4.175-.698l.429.007m-.894 2.733l.894-2.733m0 0l1.077.019m0 0l1.984.034m-1.207.172l-.206 3.478m1.413-3.65l1.31.022m0 0v1.98m1.511-1.83v1.584l1.289-1.584.43 1.584 1.302-1.347.504.998 1.51-.77.504 1.119 1.007-1.118" stroke="#565C60" stroke-width="1.5" stroke-linecap="round" stroke-linejoin="round"/><path d="M5.925 7h39.763s2.382.219 2.31 5.5c-.07 5.281-2.31 5.5-2.31 5.5H5.925S3.99 17.178 4 12.5C4.01 7.822 5.925 7 5.925 7z" fill="#565C60"/></svg>